<svg version="1.1" viewBox="0.0 0.0 960.0 720.0" fill="none" stroke="none" stroke-linecap="square" stroke-miterlimit="10" xmlns:xlink="http://www.w3.org/1999/xlink" xmlns="http://www.w3.org/2000/svg"><clipPath id="p.0"><path d="m0 0l960.0 0l0 720.0l-960.0 0l0 -720.0z" clip-rule="nonzero"/></clipPath><g clip-path="url(#p.0)"><path fill="#000000" fill-opacity="0.0" d="m0 0l960.0 0l0 720.0l-960.0 0z" fill-rule="evenodd"/><path fill="#f3f3f3" d="m154.44202 281.63956l651.1098 0l0 0c85.29718 0 154.44415 35.082123 154.44415 78.35812c0 43.27597 -69.14697 78.35809 -154.44415 78.35809l-651.1098 0l0 0c-85.29714 0 -154.44414 -35.082123 -154.44414 -78.35809c0 -43.276 69.146996 -78.35812 154.44414 -78.35812z" fill-rule="evenodd"/><path stroke="#000000" stroke-width="1.0" stroke-linejoin="round" stroke-linecap="butt" d="m154.44202 281.63956l651.1098 0l0 0c85.29718 0 154.44415 35.082123 154.44415 78.35812c0 43.27597 -69.14697 78.35809 -154.44415 78.35809l-651.1098 0l0 0c-85.29714 0 -154.44414 -35.082123 -154.44414 -78.35809c0 -43.276 69.146996 -78.35812 154.44414 -78.35812z" fill-rule="evenodd"/><path fill="#f3f3f3" d="m154.44202 -0.0019435695l651.1098 0l0 0c85.29718 0 154.44415 35.08212 154.44415 78.35811c0 43.275993 -69.14697 78.358116 -154.44415 78.358116l-651.1098 0l0 0c-85.29714 0 -154.44414 -35.082123 -154.44414 -78.358116c0 -43.275986 69.146996 -78.35811 154.44414 -78.35811z" fill-rule="evenodd"/><path stroke="#000000" stroke-width="1.0" stroke-linejoin="round" stroke-linecap="butt" d="m154.44202 -0.0019435695l651.1098 0l0 0c85.29718 0 154.44415 35.08212 154.44415 78.35811c0 43.275993 -69.14697 78.358116 -154.44415 78.358116l-651.1098 0l0 0c-85.29714 0 -154.44414 -35.082123 -154.44414 -78.358116c0 -43.275986 69.146996 -78.35811 154.44414 -78.35811z" fill-rule="evenodd"/><path fill="#f3f3f3" d="m154.44202 563.28107l651.1098 0l0 0c85.29718 0 154.44415 35.082092 154.44415 78.35809c0 43.276 -69.14697 78.358154 -154.44415 78.358154l-651.1098 0l0 0c-85.29714 0 -154.44414 -35.082153 -154.44414 -78.358154c0 -43.276 69.146996 -78.35809 154.44414 -78.35809z" fill-rule="evenodd"/><path stroke="#000000" stroke-width="1.0" stroke-linejoin="round" stroke-linecap="butt" d="m154.44202 563.28107l651.1098 0l0 0c85.29718 0 154.44415 35.082092 154.44415 78.35809c0 43.276 -69.14697 78.358154 -154.44415 78.358154l-651.1098 0l0 0c-85.29714 0 -154.44414 -35.082153 -154.44414 -78.358154c0 -43.276 69.146996 -78.35809 154.44414 -78.35809z" fill-rule="evenodd"/></g></svg>