<svg version="1.1" viewBox="0.0 0.0 960.0 720.0" fill="none" stroke="none" stroke-linecap="square" stroke-miterlimit="10" xmlns:xlink="http://www.w3.org/1999/xlink" xmlns="http://www.w3.org/2000/svg"><clipPath id="p.0"><path d="m0 0l960.0 0l0 720.0l-960.0 0l0 -720.0z" clip-rule="nonzero"/></clipPath><g clip-path="url(#p.0)"><path fill="#000000" fill-opacity="0.0" d="m0 0l960.0 0l0 720.0l-960.0 0z" fill-rule="evenodd"/><path fill="#f3f3f3" d="m305.20547 74.3887l460.40604 460.40604l0 0c60.314453 60.314453 84.40155 134.01636 53.80011 164.6178c-30.60144 30.60144 -104.30328 6.514282 -164.61774 -53.80017l-460.40607 -460.406l0 0c-60.314438 -60.314438 -84.40157 -134.01633 -53.800125 -164.61777c30.60144 -30.601444 104.30333 -6.514309 164.61777 53.800125z" fill-rule="evenodd"/><path stroke="#000000" stroke-width="1.0" stroke-linejoin="round" stroke-linecap="butt" d="m305.20547 74.3887l460.40604 460.40604l0 0c60.314453 60.314453 84.40155 134.01636 53.80011 164.6178c-30.60144 30.60144 -104.30328 6.514282 -164.61774 -53.80017l-460.40607 -460.406l0 0c-60.314438 -60.314438 -84.40157 -134.01633 -53.800125 -164.61777c30.60144 -30.601444 104.30333 -6.514309 164.61777 53.800125z" fill-rule="evenodd"/><path fill="#f3f3f3" d="m765.6115 185.20634l-460.40604 460.406l0 0c-60.314438 60.314453 -134.01633 84.40161 -164.61777 53.80017c-30.601448 -30.60144 -6.5143127 -104.303345 53.800125 -164.6178l460.40607 -460.40604l0 0c60.314453 -60.31443 134.0163 -84.401566 164.61774 -53.800125c30.60144 30.601446 6.5143433 104.30333 -53.80011 164.61777z" fill-rule="evenodd"/><path stroke="#000000" stroke-width="1.0" stroke-linejoin="round" stroke-linecap="butt" d="m765.6115 185.20634l-460.40604 460.406l0 0c-60.314438 60.314453 -134.01633 84.40161 -164.61777 53.80017c-30.601448 -30.60144 -6.5143127 -104.303345 53.800125 -164.6178l460.40607 -460.40604l0 0c60.314453 -60.31443 134.0163 -84.401566 164.61774 -53.800125c30.60144 30.601446 6.5143433 104.30333 -53.80011 164.61777z" fill-rule="evenodd"/></g></svg>